<svg width="100" height="100" viewBox="0 0 100 100" fill="none" xmlns="http://www.w3.org/2000/svg">
<path d="M59 74L55.6549 69.2213C55.5535 69.0764 55.4154 68.9609 55.2547 68.8868L51.7017 67.2469C50.8314 66.8452 49.9492 67.7797 50.4002 68.6255L52.8816 73.2781C52.9593 73.4238 53.0719 73.5479 53.2093 73.6395L56.6679 75.9453C57.1275 76.2517 57.2517 76.8725 56.9453 77.3321L55.9547 78.8179C55.6903 79.2145 55.7426 79.7426 56.0797 80.0797L56.7929 80.7929C57.1834 81.1834 57.8166 81.1834 58.2071 80.7929L59.3331 79.6669C59.4428 79.5572 59.5767 79.4744 59.724 79.4253L61.419 78.8603C62.0874 78.6375 62.0114 77.6686 61.3164 77.5527C61.1162 77.5194 60.9416 77.3977 60.8408 77.2215L59 74Z" fill="url(#paint0_linear_401_81)" stroke="black"/>
<path d="M22.6759 43.3025C22.8997 43.8993 22.1867 44.4056 21.697 43.9975L20.7929 43.2441C20.6052 43.0876 20.4864 42.8638 20.4621 42.6206L20.0184 38.1841C20.0062 38.0624 20.0165 37.9395 20.0487 37.8215L21.3765 32.953C21.4547 32.666 21.6567 32.4288 21.9274 32.3057L26.7177 30.1283C26.9016 30.0447 27.1064 30.0188 27.3053 30.0539L35.1896 31.4452C35.3916 31.4809 35.5778 31.5778 35.7229 31.7229L39.5 35.5L44.8674 41.8433C44.9549 41.9467 45.0625 42.0312 45.1836 42.0918L50 44.5L56.8708 48.917C56.9564 48.972 57.0331 49.0398 57.0983 49.118L64.4083 57.8899C64.4691 57.9629 64.5192 58.0442 64.5571 58.1314L69.5 69.5L76.4642 82.4334C76.488 82.4777 76.5085 82.5238 76.5254 82.5712L78.9243 89.2881C78.9741 89.4276 78.9924 89.5765 78.9776 89.7239L78.6717 92.7825C78.5953 93.5472 77.7208 93.9434 77.0955 93.4968L71.6491 89.6065C71.5505 89.5361 71.4656 89.4483 71.3983 89.3475L65.5 80.5L62.188 74.3492C62.0672 74.1249 61.8654 73.9551 61.6238 73.8746L54.5966 71.5322C54.5324 71.5108 54.4705 71.4829 54.4118 71.449L45 66L38.743 61.6682C38.5844 61.5584 38.4609 61.4051 38.3875 61.2268L35.0456 53.1106C35.0153 53.0371 34.9764 52.9675 34.9296 52.9032L31.091 47.6251C31.0307 47.5422 30.9835 47.4505 30.9511 47.3532L29.7556 43.7669C29.6065 43.3196 29.1652 43.0372 28.6965 43.0893L25.362 43.4598C25.1282 43.4858 24.8927 43.4285 24.6969 43.2979L23.6018 42.5678C23.1001 42.2334 22.4643 42.738 22.6759 43.3025V43.3025Z" fill="url(#paint1_linear_401_81)" stroke="black"/>
<path d="M48.5 68.5L47.1489 64.4468C47.0546 64.1638 47.0915 63.8535 47.2496 63.6006L48.8686 61.0103C49.198 60.4832 49.9235 60.3811 50.3855 60.797L54.169 64.2021C54.3797 64.3917 54.5 64.6619 54.5 64.9454V68.2947C54.5 68.4302 54.4725 68.5642 54.4191 68.6887L51.7597 74.8939C51.6022 75.2616 51.2406 75.5 50.8406 75.5H49.2808C48.6302 75.5 48.1528 76.1114 48.3106 76.7425L48.6081 77.9326C48.7856 78.6425 48.1425 79.2856 47.4326 79.1081C47.158 79.0395 46.9272 78.8543 46.8006 78.6012L45.2465 75.493C45.093 75.1861 44.793 74.9793 44.4516 74.9452L42.2016 74.7202C41.4197 74.642 41.1414 73.6439 41.7701 73.1724C41.9193 73.0605 42.1008 73 42.2874 73H45.5H48.2534C48.8931 73 49.3684 72.4076 49.2296 71.7831L48.5 68.5Z" fill="url(#paint2_linear_401_81)" stroke="black"/>
<path d="M42.6489 46.2567L46 45L50.1406 44.0799C50.3726 44.0283 50.6154 44.0611 50.8254 44.1723L58.897 48.4455C58.9655 48.4817 59.0294 48.5257 59.0877 48.5767L62.8736 51.8894C62.9573 51.9626 63.0282 52.0493 63.0833 52.1458L67 59L71.5445 66.6906C71.8352 67.1827 71.1861 67.6861 70.7819 67.2819C70.618 67.118 70.3612 67.0926 70.1683 67.2211L69.6133 67.5912C69.2486 67.8343 68.7681 67.8116 68.428 67.5352L62.1897 62.4666C61.659 62.0354 60.8604 62.3375 60.748 63.0121C60.6365 63.6811 59.8484 63.9856 59.316 63.5653L51 57L42.4145 50.7994C42.1542 50.6114 42 50.3098 42 49.9887V47.193C42 46.7762 42.2586 46.403 42.6489 46.2567Z" fill="#3E48FE" stroke="black"/>
<defs>
<linearGradient id="paint0_linear_401_81" x1="56.5" y1="66" x2="56.5" y2="81.5" gradientUnits="userSpaceOnUse">
<stop stop-color="#FEC83E"/>
<stop offset="1" stop-color="#1F0E10"/>
</linearGradient>
<linearGradient id="paint1_linear_401_81" x1="25.5" y1="30.5" x2="78" y2="90" gradientUnits="userSpaceOnUse">
<stop stop-color="#27A224"/>
<stop offset="0.04" stop-color="white"/>
<stop offset="0.075"/>
<stop offset="0.145" stop-color="#FEC83E"/>
<stop offset="0.535" stop-color="#F2C04A"/>
<stop offset="0.695" stop-color="#3E48FE"/>
<stop offset="1" stop-color="#02086D"/>
</linearGradient>
<linearGradient id="paint2_linear_401_81" x1="47.25" y1="60" x2="47.25" y2="79.5" gradientUnits="userSpaceOnUse">
<stop stop-color="#FEC83E"/>
<stop offset="1"/>
</linearGradient>
</defs>
</svg>
