<svg width="100" height="100" viewBox="0 0 100 100" fill="none" xmlns="http://www.w3.org/2000/svg">
<path d="M55.9689 55.7015L19 62.2658V81.6817L55.9689 75.1173L55.9689 55.7015Z" fill="#68321C"/>
<path d="M81 60.7213L55.9689 55.7015L55.9689 75.1173L81 80.1371V60.7213Z" fill="#68321C"/>
<path d="M55.9689 55.7015L81 60.7213V80.1371L55.9689 75.1173M55.9689 55.7015L19 62.2658V81.6817L55.9689 75.1173M55.9689 55.7015L55.9689 75.1173" stroke="#FEC83E"/>
<path d="M29.5 60.2015C26.5 55.7015 20.5 58.2015 22.5 62.7015L44 76.2015L78.5 60.7015C79.5 55.7015 72 55.2015 71 58.7015C68.5 51.2015 63.5 54.7015 61.5 58.7015C58.5 57.2015 52.5 56.7015 49.5 60.7015C50.5 56.7015 41.5 49.7015 38 58.2015C36 51.7015 30.5 53.7015 29.5 60.2015Z" fill="#FEAE3E" stroke="#FEC83E" stroke-linejoin="round"/>
<path d="M44.0311 67.2856L19 62.2658V81.6817L44.0311 86.7015V67.2856Z" fill="url(#paint0_linear_401_87)"/>
<path d="M44.0311 86.7015L81 80.1371V60.7213L55.9689 65.1659L44.0311 67.2856V86.7015Z" fill="url(#paint1_linear_401_87)"/>
<path d="M44.0311 67.2856L19 62.2658V81.6817L44.0311 86.7015M44.0311 67.2856V86.7015M44.0311 67.2856L55.9689 65.1659L81 60.7213V80.1371L44.0311 86.7015" stroke="#FEC83E"/>
<path d="M32.4943 52.5113C39.4997 53.0399 44.8162 58.2737 44.3689 64.2015L19 62.2873C19.3591 57.5279 23.3247 53.7682 28.5 52.7447C28.6194 52.7211 28.7394 52.6989 28.8601 52.6783C30.0232 52.4789 31.2434 52.4169 32.4943 52.5113Z" fill="#BA552D"/>
<path d="M44.3689 64.2015C44.8162 58.2737 39.4997 53.0399 32.4943 52.5113C31.2434 52.4169 30.0232 52.4789 28.8601 52.6783L64.5 46.1016C66.0063 45.7097 67.6322 45.5539 69.3136 45.6808C76.319 46.2094 81.6355 51.4433 81.1882 57.371L44.3689 64.2015Z" fill="#BA552D"/>
<path d="M44.3689 64.2015C44.8162 58.2737 39.4997 53.0399 32.4943 52.5113C31.2434 52.4169 30.0232 52.4789 28.8601 52.6783M44.3689 64.2015L19 62.2873C19.3591 57.5279 23.3247 53.7682 28.5 52.7447M44.3689 64.2015L81.1882 57.371C81.6355 51.4433 76.319 46.2094 69.3136 45.6808C67.6322 45.5539 66.0063 45.7097 64.5 46.1016L28.8601 52.6783M28.5 52.7447L28.8601 52.6783M28.5 52.7447C28.6194 52.7211 28.7394 52.6989 28.8601 52.6783" stroke="#FEC83E"/>
<path d="M63.0012 64.3605C63.0013 64.1202 63.1723 63.9139 63.4084 63.8693L66.4093 63.3022C66.7172 63.244 67.0022 63.4802 67.0021 63.7936L67.0013 67.7871C67.0013 68.0275 66.8303 68.2337 66.5942 68.2784L63.5932 68.8454C63.2853 68.9036 63.0003 68.6674 63.0004 68.354L63.0012 64.3605Z" fill="#A2A2A2"/>
<path d="M61.2444 58.624C61.1189 58.33 61.2977 57.9954 61.6119 57.9363L64.066 57.4748C64.2966 57.4314 64.5262 57.5541 64.6183 57.7699L67.6376 64.8429C67.7631 65.1369 67.5843 65.4715 67.2702 65.5306L64.816 65.9921C64.5855 66.0355 64.3558 65.9127 64.2637 65.697L61.2444 58.624Z" fill="url(#paint2_linear_401_87)"/>
<path d="M67.5 68.7015L66.9642 65.2218C66.8661 64.5845 66.2699 64.1475 65.6326 64.2456V64.2456C64.9954 64.3437 64.5583 64.9399 64.6564 65.5771L65.1922 69.0568" stroke="#B99700"/>
<path d="M65.6043 65.3963L66.1165 65.2591C66.7393 65.0922 67.1089 64.452 66.9421 63.8292V63.8292C66.7752 63.2064 66.135 62.8368 65.5122 63.0036L65 63.1409" stroke="#A2A2A2"/>
<mask id="path-12-inside-1_401_87" fill="white">
<path d="M63.3044 69.5913C63.1363 68.4996 63.885 67.4783 64.9767 67.3102L66.9534 67.0058C68.0451 66.8377 69.0664 67.5865 69.2345 68.6782L69.7661 72.1306C69.9342 73.2223 69.1855 74.2436 68.0938 74.4117L66.117 74.7161C65.0253 74.8842 64.0041 74.1354 63.836 73.0437L63.3044 69.5913Z"/>
</mask>
<path d="M63.3044 69.5913C63.1363 68.4996 63.885 67.4783 64.9767 67.3102L66.9534 67.0058C68.0451 66.8377 69.0664 67.5865 69.2345 68.6782L69.7661 72.1306C69.9342 73.2223 69.1855 74.2436 68.0938 74.4117L66.117 74.7161C65.0253 74.8842 64.0041 74.1354 63.836 73.0437L63.3044 69.5913Z" fill="#DDBA1F"/>
<path d="M63 67.6146L68.9301 66.7015L63 67.6146ZM70.0705 74.1073L64.1403 75.0204L70.0705 74.1073ZM66.117 74.7161C64.4795 74.9682 62.9476 73.8451 62.6954 72.2076L62.4682 70.7318C62.2161 69.0942 63.3391 67.5623 64.9767 67.3102C64.4309 67.3942 64.1246 68.3474 64.2927 69.4391L64.8243 72.8915C64.9924 73.9832 65.5712 74.8001 66.117 74.7161ZM68.9301 66.7015L70.0705 74.1073L68.9301 66.7015Z" fill="#B99700" mask="url(#path-12-inside-1_401_87)"/>
<defs>
<linearGradient id="paint0_linear_401_87" x1="50" y1="85.7015" x2="50" y2="55.2015" gradientUnits="userSpaceOnUse">
<stop stop-color="#68321C"/>
<stop offset="1" stop-color="#BA552D"/>
</linearGradient>
<linearGradient id="paint1_linear_401_87" x1="50" y1="85.7015" x2="50" y2="55.2015" gradientUnits="userSpaceOnUse">
<stop stop-color="#68321C"/>
<stop offset="1" stop-color="#BA552D"/>
</linearGradient>
<linearGradient id="paint2_linear_401_87" x1="65.5151" y1="59.8708" x2="62.38" y2="61.1206" gradientUnits="userSpaceOnUse">
<stop offset="0.86" stop-color="#D9D9D9"/>
<stop offset="1" stop-color="#737373"/>
</linearGradient>
</defs>
</svg>
