<svg width="100" height="100" viewBox="0 0 100 100" fill="none" xmlns="http://www.w3.org/2000/svg">
<path d="M59.9689 50L23 56.5644V75.9802L59.9689 69.4158L59.9689 50Z" fill="#68321C"/>
<path d="M85 55.0198L59.9689 50L59.9689 69.4158L85 74.4356V55.0198Z" fill="#68321C"/>
<path d="M59.9689 50L85 55.0198V74.4356L59.9689 69.4158M59.9689 50L23 56.5644V75.9802L59.9689 69.4158M59.9689 50L59.9689 69.4158" stroke="#FEC83E"/>
<path d="M46.7808 27.4915C42.4836 29.9725 41.8476 36.9159 45.3603 43C47.757 47.1512 51.4658 49.8298 54.9453 50.3248L59.5013 49.5241L46.7808 27.4915Z" fill="#68321C"/>
<path d="M8.32691 49.5086C11.8396 55.5927 18.1707 58.5136 22.4679 56.0326L9.74742 34.0001C5.45022 36.4811 4.81424 43.4245 8.32691 49.5086Z" fill="#BA552D"/>
<path d="M22.4679 56.0326C18.1707 58.5136 11.8396 55.5927 8.32691 49.5086C4.81424 43.4245 5.45022 36.4811 9.74742 34.0001M22.4679 56.0326L9.74742 34.0001M22.4679 56.0326L54.9453 50.3248M9.74742 34.0001L46.7808 27.4915M46.7808 27.4915C42.4836 29.9725 41.8476 36.9159 45.3603 43C47.757 47.1512 51.4658 49.8298 54.9453 50.3248M46.7808 27.4915L59.5013 49.5241L54.9453 50.3248" stroke="#FEC83E"/>
<path d="M9.74743 34.0001L22.468 56.0327L54.9454 50.3248C51.4658 49.8298 47.757 47.1512 45.3603 43C41.8477 36.9159 42.4836 29.9725 46.7808 27.4915L9.74743 34.0001Z" fill="url(#paint0_linear_401_90)" stroke="#FEC83E"/>
<path d="M33.5 54.5C30.5 50 24.5 52.5 26.5 57L48 70.5L82.5 55C83.5 50 76 49.5 75 53C72.5 45.5 67.5 49 65.5 53C62.5 51.5 56.5 51 53.5 55C54.5 51 45.5 44 42 52.5C40 46 34.5 48 33.5 54.5Z" fill="#FEAE3E" stroke="#FEC83E" stroke-linejoin="round"/>
<path d="M48.0311 61.5841L23 56.5643V75.9802L48.0311 81V61.5841Z" fill="url(#paint1_linear_401_90)"/>
<path d="M48.0311 81L85 74.4356V55.0198L59.9689 59.4644L48.0311 61.5841V81Z" fill="url(#paint2_linear_401_90)"/>
<path d="M48.0311 61.5841L23 56.5643V75.9802L48.0311 81M48.0311 61.5841V81M48.0311 61.5841L59.9689 59.4644L85 55.0198V74.4356L48.0311 81" stroke="#FEC83E"/>
<defs>
<linearGradient id="paint0_linear_401_90" x1="25.0441" y1="25.1685" x2="25" y2="56.5" gradientUnits="userSpaceOnUse">
<stop stop-color="#68321C"/>
<stop offset="1" stop-color="#BA552D"/>
</linearGradient>
<linearGradient id="paint1_linear_401_90" x1="54" y1="80" x2="54" y2="49.5" gradientUnits="userSpaceOnUse">
<stop stop-color="#68321C"/>
<stop offset="1" stop-color="#BA552D"/>
</linearGradient>
<linearGradient id="paint2_linear_401_90" x1="54" y1="80" x2="54" y2="49.5" gradientUnits="userSpaceOnUse">
<stop stop-color="#68321C"/>
<stop offset="1" stop-color="#BA552D"/>
</linearGradient>
</defs>
</svg>
