<svg width="100" height="100" viewBox="0 0 100 100" fill="none" xmlns="http://www.w3.org/2000/svg">
<path d="M31 22L28 14.5L34.5 11L47 16L57 14.5L67.5 18L70.5 14.5L80 16L86 12.5L92 13.5L90 21V25.5L96 38L92 45.5L89.5 60.5L94 73.5L91.5 81.5L85 86L74 80.5L65 79L42.5 80.5L33.5 82.5L29 76L31 69L35 66.5L38 56.5L34.5 42L29 32.5L31 22Z" fill="#EBEBEB" stroke="#FEC83E"/>
<path d="M70 22.5C74.5 22.5 83 26.5 83.5 32.5M85.5 22.5C81 20 74 30.5 74.5 33.5" stroke="#E74D49" stroke-width="4" stroke-linecap="round" stroke-linejoin="round"/>
<path d="M72 30C61 30 44.5 29.5 50 41C55.5 52.5 50 69 65.5 61.5C81 54 84 47 70.5 46.5C57 46 45 45.5 46.5 58C48 70.5 37.9998 76.5 55.9998 76.5" stroke="#ABABAB" stroke-linecap="round" stroke-linejoin="round" stroke-dasharray="2 2"/>
</svg>
