<svg width="100" height="100" viewBox="0 0 100 100" fill="none" xmlns="http://www.w3.org/2000/svg">
<path d="M20 23L17 15.5L23.5 12L36 17L46 15.5L56.5 19L59.5 15.5L69 17L75 13.5L81 14.5L79 22V26.5L85 39L81 46.5L78.5 61.5L83 74.5L80.5 82.5L74 87L63 81.5L54 80L31.5 81.5L22.5 83.5L18 77L20 70L24 67.5L27 57.5L23.5 43L18 33.5L20 23Z" fill="#EBEBEB" stroke="#FEC83E"/>
<path d="M59 23.5C63.5 23.5 72 27.5 72.5 33.5M74.5 23.5C70 21 63 31.5 63.5 34.5" stroke="#E74D49" stroke-width="4" stroke-linecap="round" stroke-linejoin="round"/>
<path d="M61 31C50 31 33.5 30.5 39 42C44.5 53.5 39 70 54.5 62.5C70 55 73 48 59.5 47.5C46 47 34 46.5 35.5 59C37 71.5 26.9998 77.5 44.9998 77.5" stroke="white" stroke-linecap="round" stroke-linejoin="round" stroke-dasharray="2 2"/>
<path d="M45.444 23.045L44.134 20.815H44.964L45.709 22.325L45.279 22.31L45.924 20.815H46.704L45.464 23.045H45.444ZM47.1149 20.815H47.8149V23H47.1149V20.815ZM47.0999 20.04C47.0999 19.9367 47.1399 19.8517 47.2199 19.785C47.3032 19.7183 47.3915 19.685 47.4849 19.685C47.5782 19.685 47.6632 19.7183 47.7399 19.785C47.8199 19.8517 47.8599 19.9367 47.8599 20.04C47.8599 20.1433 47.8199 20.2283 47.7399 20.295C47.6632 20.3583 47.5782 20.39 47.4849 20.39C47.3915 20.39 47.3032 20.3583 47.2199 20.295C47.1399 20.2283 47.0999 20.1433 47.0999 20.04ZM49.4258 23.06C49.2224 23.06 49.0408 23.0133 48.8808 22.92C48.7208 22.8233 48.5941 22.685 48.5008 22.505C48.4108 22.325 48.3658 22.1117 48.3658 21.865C48.3658 21.6183 48.4158 21.4083 48.5158 21.235C48.6158 21.0617 48.7524 20.93 48.9258 20.84C49.0991 20.75 49.2958 20.705 49.5158 20.705C49.6558 20.705 49.7891 20.7267 49.9158 20.77C50.0458 20.8133 50.1541 20.88 50.2408 20.97V21.19V19.055H50.9358V23H50.2358V22.575L50.2908 22.725C50.1774 22.8183 50.0508 22.8983 49.9108 22.965C49.7708 23.0283 49.6091 23.06 49.4258 23.06ZM49.6558 22.47C49.7491 22.47 49.8308 22.4583 49.9008 22.435C49.9741 22.4083 50.0374 22.3717 50.0908 22.325C50.1474 22.275 50.1958 22.2133 50.2358 22.14V21.605C50.2091 21.5317 50.1674 21.47 50.1108 21.42C50.0574 21.3667 49.9908 21.3267 49.9108 21.3C49.8341 21.27 49.7491 21.255 49.6558 21.255C49.5524 21.255 49.4558 21.2817 49.3658 21.335C49.2791 21.385 49.2091 21.455 49.1558 21.545C49.1024 21.635 49.0758 21.7383 49.0758 21.855C49.0758 21.9717 49.1024 22.0767 49.1558 22.17C49.2091 22.2633 49.2791 22.3367 49.3658 22.39C49.4558 22.4433 49.5524 22.47 49.6558 22.47ZM52.7309 23.06C52.4642 23.06 52.2376 23.01 52.0509 22.91C51.8676 22.81 51.7276 22.6717 51.6309 22.495C51.5342 22.3183 51.4859 22.115 51.4859 21.885C51.4859 21.665 51.5426 21.4667 51.6559 21.29C51.7692 21.1133 51.9209 20.9733 52.1109 20.87C52.3009 20.7633 52.5126 20.71 52.7459 20.71C53.0592 20.71 53.3159 20.8017 53.5159 20.985C53.7192 21.165 53.8509 21.4267 53.9109 21.77L52.2109 22.31L52.0559 21.93L53.2859 21.515L53.1409 21.58C53.1142 21.4933 53.0659 21.4183 52.9959 21.355C52.9292 21.2883 52.8276 21.255 52.6909 21.255C52.5876 21.255 52.4959 21.28 52.4159 21.33C52.3392 21.3767 52.2792 21.445 52.2359 21.535C52.1959 21.6217 52.1759 21.725 52.1759 21.845C52.1759 21.9817 52.2009 22.0967 52.2509 22.19C52.3009 22.28 52.3692 22.3483 52.4559 22.395C52.5426 22.4417 52.6392 22.465 52.7459 22.465C52.8226 22.465 52.8959 22.4517 52.9659 22.425C53.0392 22.3983 53.1109 22.3633 53.1809 22.32L53.4909 22.84C53.3742 22.9067 53.2476 22.96 53.1109 23C52.9776 23.04 52.8509 23.06 52.7309 23.06ZM54.2496 21.88C54.2496 21.6567 54.3012 21.4567 54.4046 21.28C54.5112 21.1033 54.6596 20.965 54.8496 20.865C55.0396 20.7617 55.2579 20.71 55.5046 20.71C55.7546 20.71 55.9712 20.7617 56.1546 20.865C56.3379 20.965 56.4779 21.1033 56.5746 21.28C56.6746 21.4567 56.7246 21.6567 56.7246 21.88C56.7246 22.1033 56.6746 22.305 56.5746 22.485C56.4779 22.6617 56.3379 22.8017 56.1546 22.905C55.9712 23.0083 55.7512 23.06 55.4946 23.06C55.2546 23.06 55.0396 23.0133 54.8496 22.92C54.6629 22.8267 54.5162 22.6917 54.4096 22.515C54.3029 22.3383 54.2496 22.1267 54.2496 21.88ZM54.9546 21.885C54.9546 21.9983 54.9779 22.1017 55.0246 22.195C55.0712 22.285 55.1346 22.3567 55.2146 22.41C55.2946 22.4633 55.3846 22.49 55.4846 22.49C55.5946 22.49 55.6896 22.4633 55.7696 22.41C55.8496 22.3567 55.9112 22.285 55.9546 22.195C55.9979 22.1017 56.0196 21.9983 56.0196 21.885C56.0196 21.7683 55.9979 21.665 55.9546 21.575C55.9112 21.485 55.8496 21.4133 55.7696 21.36C55.6896 21.3067 55.5946 21.28 55.4846 21.28C55.3846 21.28 55.2946 21.3067 55.2146 21.36C55.1346 21.4133 55.0712 21.485 55.0246 21.575C54.9779 21.665 54.9546 21.7683 54.9546 21.885Z" fill="black"/>
</svg>
